<svg xmlns="http://www.w3.org/2000/svg" xmlns:xlink="http://www.w3.org/1999/xlink" width="500" zoomAndPan="magnify" viewBox="60 146 255 72" height="500" preserveAspectRatio="xMidYMid meet" version="1.0"><defs><g/><clipPath id="4ca7b7d947"><path d="M 64.382812 151.953125 L 310.617188 151.953125 L 310.617188 183.464844 L 64.382812 183.464844 Z M 64.382812 151.953125 " clip-rule="nonzero"/></clipPath><clipPath id="34d9d3e59c"><path d="M 0.382812 0.953125 L 246.617188 0.953125 L 246.617188 32.464844 L 0.382812 32.464844 Z M 0.382812 0.953125 " clip-rule="nonzero"/></clipPath><clipPath id="b349993701"><rect x="0" width="247" y="0" height="33"/></clipPath><clipPath id="fd9721dd71"><path d="M 64.382812 195.464844 L 310.617188 195.464844 L 310.617188 212.714844 L 64.382812 212.714844 Z M 64.382812 195.464844 " clip-rule="nonzero"/></clipPath><clipPath id="173f236aeb"><path d="M 0.382812 0.464844 L 246.617188 0.464844 L 246.617188 17.714844 L 0.382812 17.714844 Z M 0.382812 0.464844 " clip-rule="nonzero"/></clipPath><clipPath id="4976c8558f"><rect x="0" width="247" y="0" height="18"/></clipPath></defs><g clip-path="url(#4ca7b7d947)"><g transform="matrix(1, 0, 0, 1, 64, 151)"><g clip-path="url(#b349993701)"><g clip-path="url(#34d9d3e59c)"><path fill="#59981a" d="M 0.382812 0.953125 L 246.675781 0.953125 L 246.675781 32.464844 L 0.382812 32.464844 Z M 0.382812 0.953125 " fill-opacity="1" fill-rule="nonzero"/></g></g></g></g><g clip-path="url(#fd9721dd71)"><g transform="matrix(1, 0, 0, 1, 64, 195)"><g clip-path="url(#4976c8558f)"><g clip-path="url(#173f236aeb)"><path fill="#edffcc" d="M 0.382812 0.464844 L 246.601562 0.464844 L 246.601562 17.714844 L 0.382812 17.714844 Z M 0.382812 0.464844 " fill-opacity="1" fill-rule="nonzero"/></g></g></g></g><g fill="#edffcc" fill-opacity="1"><g transform="translate(69.040555, 188.709244)"><g><path d="M 26.171875 -30.53125 L 17.65625 -30.53125 L 17.65625 -33.796875 C 17.65625 -34.128906 17.535156 -34.425781 17.296875 -34.6875 C 17.066406 -34.945312 16.785156 -35.078125 16.453125 -35.078125 L 12.921875 -35.078125 C 12.585938 -35.078125 12.300781 -34.945312 12.0625 -34.6875 C 11.832031 -34.425781 11.71875 -34.128906 11.71875 -33.796875 L 11.71875 -26.4375 C 11.71875 -26.09375 11.832031 -25.789062 12.0625 -25.53125 C 12.300781 -25.28125 12.585938 -25.15625 12.921875 -25.15625 L 18.6875 -25.15625 C 23.976562 -25.070312 26.625 -22.253906 26.625 -16.703125 L 26.625 -7.8125 C 26.625 -2.175781 23.976562 0.640625 18.6875 0.640625 L 11.140625 0.640625 C 5.847656 0.640625 3.203125 -2.175781 3.203125 -7.8125 L 3.203125 -12.09375 L 11.71875 -12.09375 L 11.71875 -7.484375 C 11.71875 -7.140625 11.832031 -6.835938 12.0625 -6.578125 C 12.300781 -6.328125 12.585938 -6.203125 12.921875 -6.203125 L 16.890625 -6.203125 C 17.234375 -6.203125 17.519531 -6.328125 17.75 -6.578125 C 17.988281 -6.835938 18.109375 -7.140625 18.109375 -7.484375 L 18.109375 -15.609375 C 18.109375 -15.953125 17.988281 -16.25 17.75 -16.5 C 17.519531 -16.757812 17.234375 -16.890625 16.890625 -16.890625 L 11.140625 -16.890625 C 5.847656 -16.890625 3.203125 -19.707031 3.203125 -25.34375 L 3.203125 -33.59375 C 3.203125 -39.226562 5.847656 -42.046875 11.140625 -42.046875 L 18.234375 -42.046875 C 23.523438 -42.046875 26.171875 -39.226562 26.171875 -33.59375 Z M 26.171875 -30.53125 "/></g></g></g><g fill="#edffcc" fill-opacity="1"><g transform="translate(99.63076, 188.709244)"><g><path d="M 19.640625 -42.046875 C 24.929688 -42.046875 27.578125 -39.226562 27.578125 -33.59375 L 27.578125 0 L 18.625 0 L 18.625 -13.890625 L 12.15625 -13.890625 L 12.15625 0 L 3.203125 0 L 3.203125 -33.59375 C 3.203125 -39.226562 5.847656 -42.046875 11.140625 -42.046875 Z M 12.15625 -20.796875 L 18.625 -20.796875 L 18.625 -34.6875 C 18.625 -35.03125 18.503906 -35.328125 18.265625 -35.578125 C 18.035156 -35.835938 17.75 -35.96875 17.40625 -35.96875 L 13.375 -35.96875 C 13.03125 -35.96875 12.738281 -35.835938 12.5 -35.578125 C 12.269531 -35.328125 12.15625 -35.03125 12.15625 -34.6875 Z M 12.15625 -20.796875 "/></g></g></g><g fill="#edffcc" fill-opacity="1"><g transform="translate(131.94885, 188.709244)"><g><path d="M 19.640625 -42.046875 C 24.929688 -42.046875 27.578125 -39.226562 27.578125 -33.59375 L 27.578125 0 L 18.625 0 L 18.625 -13.890625 L 12.15625 -13.890625 L 12.15625 0 L 3.203125 0 L 3.203125 -33.59375 C 3.203125 -39.226562 5.847656 -42.046875 11.140625 -42.046875 Z M 12.15625 -20.796875 L 18.625 -20.796875 L 18.625 -34.6875 C 18.625 -35.03125 18.503906 -35.328125 18.265625 -35.578125 C 18.035156 -35.835938 17.75 -35.96875 17.40625 -35.96875 L 13.375 -35.96875 C 13.03125 -35.96875 12.738281 -35.835938 12.5 -35.578125 C 12.269531 -35.328125 12.15625 -35.03125 12.15625 -34.6875 Z M 12.15625 -20.796875 "/></g></g></g><g fill="#edffcc" fill-opacity="1"><g transform="translate(164.266941, 188.709244)"><g><path d="M 19.640625 -41.40625 C 24.929688 -41.40625 27.578125 -38.585938 27.578125 -32.953125 L 27.578125 -8.453125 C 27.578125 -2.816406 24.929688 0 19.640625 0 L 3.203125 0 L 3.203125 -41.40625 Z M 18.625 -7.421875 L 18.625 -34.046875 C 18.625 -34.390625 18.503906 -34.6875 18.265625 -34.9375 C 18.035156 -35.195312 17.75 -35.328125 17.40625 -35.328125 L 12.15625 -35.328125 L 12.15625 -6.140625 L 17.40625 -6.140625 C 17.75 -6.140625 18.035156 -6.265625 18.265625 -6.515625 C 18.503906 -6.773438 18.625 -7.078125 18.625 -7.421875 Z M 18.625 -7.421875 "/></g></g></g><g fill="#edffcc" fill-opacity="1"><g transform="translate(196.585031, 188.709244)"><g><path d="M 3.78125 -3.96875 C 3.78125 -5.25 4.226562 -6.335938 5.125 -7.234375 C 6.019531 -8.128906 7.101562 -8.578125 8.375 -8.578125 C 9.65625 -8.578125 10.742188 -8.128906 11.640625 -7.234375 C 12.535156 -6.335938 12.984375 -5.25 12.984375 -3.96875 C 12.984375 -2.6875 12.535156 -1.597656 11.640625 -0.703125 C 10.742188 0.191406 9.65625 0.640625 8.375 0.640625 C 7.101562 0.640625 6.019531 0.191406 5.125 -0.703125 C 4.226562 -1.597656 3.78125 -2.6875 3.78125 -3.96875 Z M 3.78125 -3.96875 "/></g></g></g><g fill="#edffcc" fill-opacity="1"><g transform="translate(214.120034, 188.709244)"><g><path d="M 12.15625 -16.953125 L 12.15625 0 L 3.203125 0 L 3.203125 -41.40625 L 19.140625 -41.40625 C 24.429688 -41.40625 27.078125 -38.585938 27.078125 -32.953125 L 27.078125 -28.15625 C 27.078125 -24.75 25.859375 -22.570312 23.421875 -21.625 C 25.554688 -20.863281 26.625 -19.117188 26.625 -16.390625 L 26.625 0 L 17.65625 0 L 17.65625 -15.6875 C 17.65625 -16.53125 17.253906 -16.953125 16.453125 -16.953125 Z M 12.15625 -35.328125 L 12.15625 -23.234375 L 16.890625 -23.234375 C 17.234375 -23.234375 17.519531 -23.359375 17.75 -23.609375 C 17.988281 -23.867188 18.109375 -24.171875 18.109375 -24.515625 L 18.109375 -34.046875 C 18.109375 -34.390625 17.988281 -34.6875 17.75 -34.9375 C 17.519531 -35.195312 17.234375 -35.328125 16.890625 -35.328125 Z M 12.15625 -35.328125 "/></g></g></g><g fill="#edffcc" fill-opacity="1"><g transform="translate(245.030214, 188.709244)"><g><path d="M 17.984375 -41.40625 L 26.9375 -41.40625 L 26.9375 -7.8125 C 26.9375 -2.175781 24.296875 0.640625 19.015625 0.640625 L 11.078125 0.640625 C 5.785156 0.640625 3.140625 -2.175781 3.140625 -7.8125 L 3.140625 -41.40625 L 12.09375 -41.40625 L 12.09375 -7.046875 C 12.09375 -6.703125 12.207031 -6.398438 12.4375 -6.140625 C 12.675781 -5.890625 12.96875 -5.765625 13.3125 -5.765625 L 16.765625 -5.765625 C 17.109375 -5.765625 17.394531 -5.890625 17.625 -6.140625 C 17.863281 -6.398438 17.984375 -6.703125 17.984375 -7.046875 Z M 17.984375 -41.40625 "/></g></g></g><g fill="#edffcc" fill-opacity="1"><g transform="translate(276.196365, 188.709244)"><g><path d="M 26.9375 0 L 17.984375 0 L 17.984375 -34.375 C 17.984375 -34.707031 17.863281 -35 17.625 -35.25 C 17.394531 -35.507812 17.109375 -35.640625 16.765625 -35.640625 L 13.3125 -35.640625 C 12.96875 -35.640625 12.675781 -35.507812 12.4375 -35.25 C 12.207031 -35 12.09375 -34.707031 12.09375 -34.375 L 12.09375 0 L 3.140625 0 L 3.140625 -33.59375 C 3.140625 -39.226562 5.785156 -42.046875 11.078125 -42.046875 L 19.015625 -42.046875 C 24.296875 -42.046875 26.9375 -39.226562 26.9375 -33.59375 Z M 26.9375 0 "/></g></g></g><g fill="#3b5704" fill-opacity="1"><g transform="translate(103.428427, 207.866938)"><g><path d="M 1.171875 0 L 1.171875 -10.671875 L 2.34375 -10.671875 L 2.34375 -6.375 C 2.53125 -6.769531 2.859375 -7.097656 3.328125 -7.359375 C 3.796875 -7.617188 4.296875 -7.75 4.828125 -7.75 C 5.191406 -7.75 5.5625 -7.671875 5.9375 -7.515625 C 6.3125 -7.367188 6.648438 -7.132812 6.953125 -6.8125 C 7.265625 -6.488281 7.515625 -6.082031 7.703125 -5.59375 C 7.898438 -5.113281 8 -4.535156 8 -3.859375 C 8 -2.941406 7.835938 -2.1875 7.515625 -1.59375 C 7.203125 -1.007812 6.804688 -0.578125 6.328125 -0.296875 C 5.847656 -0.015625 5.363281 0.125 4.875 0.125 C 4.488281 0.125 4.125 0.0625 3.78125 -0.0625 C 3.4375 -0.1875 3.132812 -0.351562 2.875 -0.5625 C 2.613281 -0.769531 2.425781 -0.992188 2.3125 -1.234375 L 2.21875 0 Z M 4.734375 -0.828125 C 5.097656 -0.828125 5.441406 -0.9375 5.765625 -1.15625 C 6.085938 -1.375 6.347656 -1.703125 6.546875 -2.140625 C 6.742188 -2.585938 6.84375 -3.15625 6.84375 -3.84375 C 6.84375 -4.519531 6.738281 -5.066406 6.53125 -5.484375 C 6.332031 -5.910156 6.0625 -6.222656 5.71875 -6.421875 C 5.375 -6.628906 4.992188 -6.734375 4.578125 -6.734375 C 4.210938 -6.734375 3.847656 -6.625 3.484375 -6.40625 C 3.117188 -6.1875 2.816406 -5.863281 2.578125 -5.4375 C 2.335938 -5.007812 2.21875 -4.476562 2.21875 -3.84375 C 2.21875 -3.175781 2.347656 -2.613281 2.609375 -2.15625 C 2.878906 -1.707031 3.207031 -1.375 3.59375 -1.15625 C 3.988281 -0.9375 4.367188 -0.828125 4.734375 -0.828125 Z M 4.734375 -0.828125 "/></g></g></g><g fill="#3b5704" fill-opacity="1"><g transform="translate(112.444849, 207.866938)"><g><path d="M 3.921875 0.15625 C 3.390625 0.15625 2.90625 0.0351562 2.46875 -0.203125 C 2.03125 -0.441406 1.679688 -0.800781 1.421875 -1.28125 C 1.160156 -1.757812 1.03125 -2.359375 1.03125 -3.078125 L 1.03125 -7.609375 L 2.171875 -7.609375 L 2.171875 -3.078125 C 2.171875 -2.347656 2.347656 -1.800781 2.703125 -1.4375 C 3.054688 -1.070312 3.515625 -0.890625 4.078125 -0.890625 C 4.628906 -0.890625 5.085938 -1.078125 5.453125 -1.453125 C 5.816406 -1.835938 6 -2.378906 6 -3.078125 L 6 -7.609375 L 7.140625 -7.609375 L 7.140625 0 L 6.28125 0 L 6.09375 -1.09375 C 6.019531 -0.863281 5.863281 -0.648438 5.625 -0.453125 C 5.382812 -0.265625 5.109375 -0.113281 4.796875 0 C 4.492188 0.101562 4.203125 0.15625 3.921875 0.15625 Z M 3.921875 0.15625 "/></g></g></g><g fill="#3b5704" fill-opacity="1"><g transform="translate(121.037485, 207.866938)"><g><path d="M 1.796875 -9.6875 C 1.609375 -9.6875 1.4375 -9.753906 1.28125 -9.890625 C 1.125 -10.023438 1.046875 -10.195312 1.046875 -10.40625 C 1.046875 -10.625 1.125 -10.796875 1.28125 -10.921875 C 1.4375 -11.054688 1.609375 -11.125 1.796875 -11.125 C 1.992188 -11.125 2.171875 -11.054688 2.328125 -10.921875 C 2.484375 -10.796875 2.5625 -10.625 2.5625 -10.40625 C 2.5625 -10.195312 2.484375 -10.023438 2.328125 -9.890625 C 2.171875 -9.753906 1.992188 -9.6875 1.796875 -9.6875 Z M 1.296875 0 L 1.296875 -7.609375 L 2.421875 -7.609375 L 2.421875 0 Z M 1.296875 0 "/></g></g></g><g fill="#3b5704" fill-opacity="1"><g transform="translate(124.86622, 207.866938)"><g><path d="M 1.25 0 L 1.25 -11.171875 L 2.390625 -11.171875 L 2.390625 0 Z M 1.25 0 "/></g></g></g><g fill="#3b5704" fill-opacity="1"><g transform="translate(128.709569, 207.866938)"><g><path d="M 4.125 0.125 C 3.75 0.125 3.367188 0.046875 2.984375 -0.109375 C 2.597656 -0.265625 2.238281 -0.503906 1.90625 -0.828125 C 1.570312 -1.148438 1.300781 -1.566406 1.09375 -2.078125 C 0.894531 -2.585938 0.796875 -3.179688 0.796875 -3.859375 C 0.796875 -4.742188 0.960938 -5.472656 1.296875 -6.046875 C 1.628906 -6.628906 2.046875 -7.054688 2.546875 -7.328125 C 3.054688 -7.609375 3.582031 -7.75 4.125 -7.75 C 4.425781 -7.75 4.734375 -7.6875 5.046875 -7.5625 C 5.367188 -7.4375 5.65625 -7.265625 5.90625 -7.046875 C 6.15625 -6.835938 6.328125 -6.613281 6.421875 -6.375 L 6.421875 -10.671875 L 7.59375 -10.671875 L 7.59375 0 L 6.59375 0 L 6.5 -1.234375 C 6.382812 -0.960938 6.203125 -0.722656 5.953125 -0.515625 C 5.710938 -0.316406 5.429688 -0.160156 5.109375 -0.046875 C 4.785156 0.0664062 4.457031 0.125 4.125 0.125 Z M 4.28125 -0.90625 C 4.601562 -0.90625 4.9375 -1.007812 5.28125 -1.21875 C 5.632812 -1.425781 5.925781 -1.75 6.15625 -2.1875 C 6.394531 -2.625 6.515625 -3.175781 6.515625 -3.84375 C 6.515625 -4.476562 6.40625 -5.003906 6.1875 -5.421875 C 5.96875 -5.847656 5.691406 -6.164062 5.359375 -6.375 C 5.023438 -6.59375 4.671875 -6.703125 4.296875 -6.703125 C 3.929688 -6.703125 3.566406 -6.609375 3.203125 -6.421875 C 2.835938 -6.242188 2.535156 -5.945312 2.296875 -5.53125 C 2.066406 -5.113281 1.953125 -4.550781 1.953125 -3.84375 C 1.953125 -3.289062 2.023438 -2.828125 2.171875 -2.453125 C 2.328125 -2.078125 2.523438 -1.773438 2.765625 -1.546875 C 3.003906 -1.316406 3.257812 -1.148438 3.53125 -1.046875 C 3.800781 -0.953125 4.050781 -0.90625 4.28125 -0.90625 Z M 4.28125 -0.90625 "/></g></g></g><g fill="#3b5704" fill-opacity="1"><g transform="translate(137.682148, 207.866938)"><g/></g></g><g fill="#3b5704" fill-opacity="1"><g transform="translate(141.408585, 207.866938)"><g><path d="M 6.734375 -0.59375 L 5.921875 -1.40625 L 8.765625 -4.234375 L 1.453125 -4.234375 L 1.453125 -5.34375 L 8.765625 -5.34375 L 5.921875 -8.140625 L 6.734375 -8.96875 L 10.875 -4.8125 Z M 6.734375 -0.59375 "/></g></g></g><g fill="#3b5704" fill-opacity="1"><g transform="translate(153.77143, 207.866938)"><g/></g></g><g fill="#3b5704" fill-opacity="1"><g transform="translate(157.497867, 207.866938)"><g><path d="M 3.46875 0.109375 C 2.695312 0.109375 2.054688 -0.0859375 1.546875 -0.484375 C 1.035156 -0.890625 0.78125 -1.460938 0.78125 -2.203125 C 0.78125 -2.703125 0.90625 -3.128906 1.15625 -3.484375 C 1.414062 -3.835938 1.765625 -4.109375 2.203125 -4.296875 C 2.640625 -4.492188 3.128906 -4.59375 3.671875 -4.59375 C 4.160156 -4.59375 4.554688 -4.546875 4.859375 -4.453125 C 5.171875 -4.367188 5.4375 -4.296875 5.65625 -4.234375 L 5.65625 -4.734375 C 5.65625 -5.484375 5.472656 -6.003906 5.109375 -6.296875 C 4.742188 -6.585938 4.265625 -6.734375 3.671875 -6.734375 C 3.273438 -6.734375 2.929688 -6.644531 2.640625 -6.46875 C 2.347656 -6.300781 2.09375 -6.019531 1.875 -5.625 L 0.953125 -6.078125 C 1.128906 -6.484375 1.367188 -6.804688 1.671875 -7.046875 C 1.972656 -7.296875 2.300781 -7.472656 2.65625 -7.578125 C 3.007812 -7.691406 3.347656 -7.75 3.671875 -7.75 C 4.242188 -7.75 4.765625 -7.65625 5.234375 -7.46875 C 5.703125 -7.289062 6.070312 -6.976562 6.34375 -6.53125 C 6.625 -6.09375 6.765625 -5.492188 6.765625 -4.734375 L 6.765625 0 L 5.796875 0 L 5.703125 -0.96875 C 5.484375 -0.71875 5.179688 -0.472656 4.796875 -0.234375 C 4.421875 -0.00390625 3.976562 0.109375 3.46875 0.109375 Z M 3.578125 -0.859375 C 3.992188 -0.859375 4.398438 -0.992188 4.796875 -1.265625 C 5.191406 -1.535156 5.476562 -1.863281 5.65625 -2.25 L 5.65625 -3.28125 C 5.414062 -3.375 5.15625 -3.453125 4.875 -3.515625 C 4.601562 -3.578125 4.210938 -3.601562 3.703125 -3.59375 C 3.128906 -3.59375 2.679688 -3.46875 2.359375 -3.21875 C 2.046875 -2.96875 1.890625 -2.628906 1.890625 -2.203125 C 1.890625 -1.804688 2.035156 -1.484375 2.328125 -1.234375 C 2.617188 -0.984375 3.035156 -0.859375 3.578125 -0.859375 Z M 3.578125 -0.859375 "/></g></g></g><g fill="#3b5704" fill-opacity="1"><g transform="translate(165.418299, 207.866938)"><g><path d="M 3.921875 0.15625 C 3.390625 0.15625 2.90625 0.0351562 2.46875 -0.203125 C 2.03125 -0.441406 1.679688 -0.800781 1.421875 -1.28125 C 1.160156 -1.757812 1.03125 -2.359375 1.03125 -3.078125 L 1.03125 -7.609375 L 2.171875 -7.609375 L 2.171875 -3.078125 C 2.171875 -2.347656 2.347656 -1.800781 2.703125 -1.4375 C 3.054688 -1.070312 3.515625 -0.890625 4.078125 -0.890625 C 4.628906 -0.890625 5.085938 -1.078125 5.453125 -1.453125 C 5.816406 -1.835938 6 -2.378906 6 -3.078125 L 6 -7.609375 L 7.140625 -7.609375 L 7.140625 0 L 6.28125 0 L 6.09375 -1.09375 C 6.019531 -0.863281 5.863281 -0.648438 5.625 -0.453125 C 5.382812 -0.265625 5.109375 -0.113281 4.796875 0 C 4.492188 0.101562 4.203125 0.15625 3.921875 0.15625 Z M 3.921875 0.15625 "/></g></g></g><g fill="#3b5704" fill-opacity="1"><g transform="translate(174.010935, 207.866938)"><g><path d="M 1.71875 -2.296875 L 1.71875 -6.578125 L 0.4375 -6.578125 L 0.4375 -7.609375 L 1.640625 -7.609375 L 2 -9.71875 L 2.84375 -9.71875 L 2.84375 -7.609375 L 4.65625 -7.609375 L 4.65625 -6.578125 L 2.84375 -6.578125 L 2.84375 -2.40625 C 2.84375 -1.925781 2.953125 -1.570312 3.171875 -1.34375 C 3.390625 -1.113281 3.703125 -1 4.109375 -1 C 4.191406 -1 4.28125 -1 4.375 -1 C 4.476562 -1 4.570312 -1.003906 4.65625 -1.015625 L 4.65625 0 C 4.582031 0.0078125 4.472656 0.0195312 4.328125 0.03125 C 4.179688 0.0507812 4.046875 0.0625 3.921875 0.0625 C 3.546875 0.0625 3.191406 -0.0195312 2.859375 -0.1875 C 2.523438 -0.351562 2.25 -0.609375 2.03125 -0.953125 C 1.820312 -1.304688 1.71875 -1.753906 1.71875 -2.296875 Z M 1.71875 -2.296875 "/></g></g></g><g fill="#3b5704" fill-opacity="1"><g transform="translate(179.461732, 207.866938)"><g><path d="M 4.3125 0.125 C 3.894531 0.125 3.476562 0.046875 3.0625 -0.109375 C 2.644531 -0.265625 2.265625 -0.503906 1.921875 -0.828125 C 1.585938 -1.148438 1.316406 -1.554688 1.109375 -2.046875 C 0.898438 -2.546875 0.796875 -3.128906 0.796875 -3.796875 C 0.796875 -4.503906 0.894531 -5.101562 1.09375 -5.59375 C 1.300781 -6.09375 1.570312 -6.5 1.90625 -6.8125 C 2.25 -7.132812 2.628906 -7.367188 3.046875 -7.515625 C 3.460938 -7.671875 3.882812 -7.75 4.3125 -7.75 C 4.738281 -7.75 5.160156 -7.671875 5.578125 -7.515625 C 6.003906 -7.359375 6.382812 -7.117188 6.71875 -6.796875 C 7.0625 -6.472656 7.335938 -6.0625 7.546875 -5.5625 C 7.753906 -5.070312 7.859375 -4.484375 7.859375 -3.796875 C 7.859375 -3.128906 7.75 -2.546875 7.53125 -2.046875 C 7.320312 -1.554688 7.046875 -1.148438 6.703125 -0.828125 C 6.359375 -0.503906 5.972656 -0.265625 5.546875 -0.109375 C 5.128906 0.046875 4.71875 0.125 4.3125 0.125 Z M 4.3125 -0.921875 C 4.6875 -0.921875 5.054688 -1.019531 5.421875 -1.21875 C 5.796875 -1.414062 6.109375 -1.726562 6.359375 -2.15625 C 6.609375 -2.582031 6.734375 -3.128906 6.734375 -3.796875 C 6.734375 -4.503906 6.613281 -5.066406 6.375 -5.484375 C 6.132812 -5.910156 5.828125 -6.222656 5.453125 -6.421875 C 5.085938 -6.617188 4.707031 -6.71875 4.3125 -6.71875 C 3.914062 -6.71875 3.535156 -6.617188 3.171875 -6.421875 C 2.804688 -6.234375 2.503906 -5.925781 2.265625 -5.5 C 2.035156 -5.070312 1.921875 -4.503906 1.921875 -3.796875 C 1.921875 -3.148438 2.039062 -2.609375 2.28125 -2.171875 C 2.519531 -1.742188 2.828125 -1.425781 3.203125 -1.21875 C 3.578125 -1.019531 3.945312 -0.921875 4.3125 -0.921875 Z M 4.3125 -0.921875 "/></g></g></g><g fill="#3b5704" fill-opacity="1"><g transform="translate(188.332024, 207.866938)"><g><path d="M 1.25 0 L 1.25 -7.609375 L 2.203125 -7.609375 L 2.265625 -6.5625 C 2.359375 -6.757812 2.5 -6.953125 2.6875 -7.140625 C 2.882812 -7.328125 3.125 -7.484375 3.40625 -7.609375 C 3.6875 -7.742188 4 -7.8125 4.34375 -7.8125 C 4.875 -7.8125 5.332031 -7.675781 5.71875 -7.40625 C 6.113281 -7.132812 6.378906 -6.769531 6.515625 -6.3125 C 6.691406 -6.75 6.988281 -7.109375 7.40625 -7.390625 C 7.820312 -7.671875 8.320312 -7.8125 8.90625 -7.8125 C 9.75 -7.8125 10.390625 -7.519531 10.828125 -6.9375 C 11.273438 -6.351562 11.5 -5.601562 11.5 -4.6875 L 11.5 0 L 10.375 0 L 10.375 -4.59375 C 10.375 -5.320312 10.242188 -5.859375 9.984375 -6.203125 C 9.734375 -6.554688 9.332031 -6.734375 8.78125 -6.734375 C 8.21875 -6.734375 7.769531 -6.546875 7.4375 -6.171875 C 7.101562 -5.796875 6.9375 -5.269531 6.9375 -4.59375 L 6.9375 0 L 5.8125 0 L 5.8125 -4.578125 C 5.84375 -6.015625 5.316406 -6.734375 4.234375 -6.734375 C 3.648438 -6.734375 3.191406 -6.546875 2.859375 -6.171875 C 2.535156 -5.796875 2.375 -5.265625 2.375 -4.578125 L 2.375 0 Z M 1.25 0 "/></g></g></g><g fill="#3b5704" fill-opacity="1"><g transform="translate(201.060199, 207.866938)"><g><path d="M 3.46875 0.109375 C 2.695312 0.109375 2.054688 -0.0859375 1.546875 -0.484375 C 1.035156 -0.890625 0.78125 -1.460938 0.78125 -2.203125 C 0.78125 -2.703125 0.90625 -3.128906 1.15625 -3.484375 C 1.414062 -3.835938 1.765625 -4.109375 2.203125 -4.296875 C 2.640625 -4.492188 3.128906 -4.59375 3.671875 -4.59375 C 4.160156 -4.59375 4.554688 -4.546875 4.859375 -4.453125 C 5.171875 -4.367188 5.4375 -4.296875 5.65625 -4.234375 L 5.65625 -4.734375 C 5.65625 -5.484375 5.472656 -6.003906 5.109375 -6.296875 C 4.742188 -6.585938 4.265625 -6.734375 3.671875 -6.734375 C 3.273438 -6.734375 2.929688 -6.644531 2.640625 -6.46875 C 2.347656 -6.300781 2.09375 -6.019531 1.875 -5.625 L 0.953125 -6.078125 C 1.128906 -6.484375 1.367188 -6.804688 1.671875 -7.046875 C 1.972656 -7.296875 2.300781 -7.472656 2.65625 -7.578125 C 3.007812 -7.691406 3.347656 -7.75 3.671875 -7.75 C 4.242188 -7.75 4.765625 -7.65625 5.234375 -7.46875 C 5.703125 -7.289062 6.070312 -6.976562 6.34375 -6.53125 C 6.625 -6.09375 6.765625 -5.492188 6.765625 -4.734375 L 6.765625 0 L 5.796875 0 L 5.703125 -0.96875 C 5.484375 -0.71875 5.179688 -0.472656 4.796875 -0.234375 C 4.421875 -0.00390625 3.976562 0.109375 3.46875 0.109375 Z M 3.578125 -0.859375 C 3.992188 -0.859375 4.398438 -0.992188 4.796875 -1.265625 C 5.191406 -1.535156 5.476562 -1.863281 5.65625 -2.25 L 5.65625 -3.28125 C 5.414062 -3.375 5.15625 -3.453125 4.875 -3.515625 C 4.601562 -3.578125 4.210938 -3.601562 3.703125 -3.59375 C 3.128906 -3.59375 2.679688 -3.46875 2.359375 -3.21875 C 2.046875 -2.96875 1.890625 -2.628906 1.890625 -2.203125 C 1.890625 -1.804688 2.035156 -1.484375 2.328125 -1.234375 C 2.617188 -0.984375 3.035156 -0.859375 3.578125 -0.859375 Z M 3.578125 -0.859375 "/></g></g></g><g fill="#3b5704" fill-opacity="1"><g transform="translate(208.980632, 207.866938)"><g><path d="M 1.71875 -2.296875 L 1.71875 -6.578125 L 0.4375 -6.578125 L 0.4375 -7.609375 L 1.640625 -7.609375 L 2 -9.71875 L 2.84375 -9.71875 L 2.84375 -7.609375 L 4.65625 -7.609375 L 4.65625 -6.578125 L 2.84375 -6.578125 L 2.84375 -2.40625 C 2.84375 -1.925781 2.953125 -1.570312 3.171875 -1.34375 C 3.390625 -1.113281 3.703125 -1 4.109375 -1 C 4.191406 -1 4.28125 -1 4.375 -1 C 4.476562 -1 4.570312 -1.003906 4.65625 -1.015625 L 4.65625 0 C 4.582031 0.0078125 4.472656 0.0195312 4.328125 0.03125 C 4.179688 0.0507812 4.046875 0.0625 3.921875 0.0625 C 3.546875 0.0625 3.191406 -0.0195312 2.859375 -0.1875 C 2.523438 -0.351562 2.25 -0.609375 2.03125 -0.953125 C 1.820312 -1.304688 1.71875 -1.753906 1.71875 -2.296875 Z M 1.71875 -2.296875 "/></g></g></g><g fill="#3b5704" fill-opacity="1"><g transform="translate(214.431429, 207.866938)"><g><path d="M 4.359375 0.171875 C 3.722656 0.171875 3.128906 0.03125 2.578125 -0.25 C 2.035156 -0.539062 1.601562 -0.976562 1.28125 -1.5625 C 0.957031 -2.144531 0.796875 -2.882812 0.796875 -3.78125 C 0.796875 -4.644531 0.957031 -5.367188 1.28125 -5.953125 C 1.613281 -6.535156 2.046875 -6.976562 2.578125 -7.28125 C 3.109375 -7.59375 3.664062 -7.75 4.25 -7.75 C 4.84375 -7.75 5.394531 -7.613281 5.90625 -7.34375 C 6.414062 -7.082031 6.820312 -6.691406 7.125 -6.171875 C 7.4375 -5.648438 7.59375 -5.019531 7.59375 -4.28125 L 7.59375 -3.546875 L 1.921875 -3.546875 C 1.929688 -2.929688 2.050781 -2.421875 2.28125 -2.015625 C 2.507812 -1.617188 2.8125 -1.320312 3.1875 -1.125 C 3.5625 -0.9375 3.972656 -0.84375 4.421875 -0.84375 C 4.992188 -0.84375 5.460938 -0.957031 5.828125 -1.1875 C 6.191406 -1.414062 6.519531 -1.71875 6.8125 -2.09375 L 7.609375 -1.453125 C 7.273438 -0.953125 6.851562 -0.554688 6.34375 -0.265625 C 5.832031 0.0234375 5.171875 0.171875 4.359375 0.171875 Z M 1.953125 -4.53125 L 6.484375 -4.53125 C 6.484375 -4.988281 6.378906 -5.378906 6.171875 -5.703125 C 5.960938 -6.035156 5.691406 -6.289062 5.359375 -6.46875 C 5.023438 -6.644531 4.65625 -6.734375 4.25 -6.734375 C 3.84375 -6.734375 3.46875 -6.632812 3.125 -6.4375 C 2.789062 -6.238281 2.519531 -5.972656 2.3125 -5.640625 C 2.101562 -5.316406 1.984375 -4.945312 1.953125 -4.53125 Z M 1.953125 -4.53125 "/></g></g></g><g fill="#3b5704" fill-opacity="1"><g transform="translate(223.024065, 207.866938)"><g/></g></g><g fill="#3b5704" fill-opacity="1"><g transform="translate(226.750501, 207.866938)"><g><path d="M 6.734375 -0.59375 L 5.921875 -1.40625 L 8.765625 -4.234375 L 1.453125 -4.234375 L 1.453125 -5.34375 L 8.765625 -5.34375 L 5.921875 -8.140625 L 6.734375 -8.96875 L 10.875 -4.8125 Z M 6.734375 -0.59375 "/></g></g></g><g fill="#3b5704" fill-opacity="1"><g transform="translate(239.113347, 207.866938)"><g/></g></g><g fill="#3b5704" fill-opacity="1"><g transform="translate(242.839783, 207.866938)"><g><path d="M 3.734375 0.171875 C 3.128906 0.171875 2.5625 0.046875 2.03125 -0.203125 C 1.507812 -0.453125 1.050781 -0.882812 0.65625 -1.5 L 1.609375 -2.15625 C 1.898438 -1.707031 2.210938 -1.382812 2.546875 -1.1875 C 2.878906 -1 3.269531 -0.90625 3.71875 -0.90625 C 4.289062 -0.90625 4.742188 -1.019531 5.078125 -1.25 C 5.410156 -1.488281 5.578125 -1.800781 5.578125 -2.1875 C 5.578125 -2.625 5.394531 -2.929688 5.03125 -3.109375 C 4.664062 -3.285156 4.125 -3.375 3.40625 -3.375 C 2.664062 -3.375 2.054688 -3.554688 1.578125 -3.921875 C 1.097656 -4.296875 0.859375 -4.832031 0.859375 -5.53125 C 0.859375 -6.15625 1.097656 -6.679688 1.578125 -7.109375 C 2.066406 -7.535156 2.757812 -7.75 3.65625 -7.75 C 4.414062 -7.75 5.019531 -7.613281 5.46875 -7.34375 C 5.925781 -7.082031 6.304688 -6.722656 6.609375 -6.265625 L 5.671875 -5.609375 C 5.585938 -5.753906 5.453125 -5.914062 5.265625 -6.09375 C 5.085938 -6.269531 4.863281 -6.421875 4.59375 -6.546875 C 4.332031 -6.671875 4.015625 -6.734375 3.640625 -6.734375 C 3.035156 -6.734375 2.601562 -6.625 2.34375 -6.40625 C 2.09375 -6.1875 1.96875 -5.910156 1.96875 -5.578125 C 1.96875 -5.148438 2.128906 -4.851562 2.453125 -4.6875 C 2.785156 -4.53125 3.265625 -4.453125 3.890625 -4.453125 C 4.753906 -4.441406 5.441406 -4.238281 5.953125 -3.84375 C 6.460938 -3.445312 6.71875 -2.894531 6.71875 -2.1875 C 6.71875 -1.738281 6.585938 -1.332031 6.328125 -0.96875 C 6.078125 -0.613281 5.726562 -0.332031 5.28125 -0.125 C 4.84375 0.0703125 4.328125 0.171875 3.734375 0.171875 Z M 3.734375 0.171875 "/></g></g></g><g fill="#3b5704" fill-opacity="1"><g transform="translate(250.394886, 207.866938)"><g><path d="M 1.171875 0 L 1.171875 -10.671875 L 2.3125 -10.671875 L 2.3125 -6.4375 C 2.382812 -6.664062 2.53125 -6.878906 2.75 -7.078125 C 2.976562 -7.285156 3.242188 -7.445312 3.546875 -7.5625 C 3.847656 -7.6875 4.148438 -7.75 4.453125 -7.75 C 5.335938 -7.75 6.035156 -7.46875 6.546875 -6.90625 C 7.054688 -6.34375 7.3125 -5.476562 7.3125 -4.3125 L 7.3125 0 L 6.15625 0 L 6.15625 -4.3125 C 6.15625 -5.1875 6 -5.800781 5.6875 -6.15625 C 5.375 -6.519531 4.914062 -6.703125 4.3125 -6.703125 C 3.75 -6.703125 3.273438 -6.484375 2.890625 -6.046875 C 2.503906 -5.609375 2.3125 -5.03125 2.3125 -4.3125 L 2.3125 0 Z M 1.171875 0 "/></g></g></g><g fill="#3b5704" fill-opacity="1"><g transform="translate(258.87062, 207.866938)"><g><path d="M 1.796875 -9.6875 C 1.609375 -9.6875 1.4375 -9.753906 1.28125 -9.890625 C 1.125 -10.023438 1.046875 -10.195312 1.046875 -10.40625 C 1.046875 -10.625 1.125 -10.796875 1.28125 -10.921875 C 1.4375 -11.054688 1.609375 -11.125 1.796875 -11.125 C 1.992188 -11.125 2.171875 -11.054688 2.328125 -10.921875 C 2.484375 -10.796875 2.5625 -10.625 2.5625 -10.40625 C 2.5625 -10.195312 2.484375 -10.023438 2.328125 -9.890625 C 2.171875 -9.753906 1.992188 -9.6875 1.796875 -9.6875 Z M 1.296875 0 L 1.296875 -7.609375 L 2.421875 -7.609375 L 2.421875 0 Z M 1.296875 0 "/></g></g></g><g fill="#3b5704" fill-opacity="1"><g transform="translate(262.699355, 207.866938)"><g><path d="M 2.390625 -1.171875 L 2.390625 3.109375 L 1.25 3.109375 L 1.25 -7.609375 L 2.28125 -7.609375 L 2.359375 -6.484375 C 2.492188 -6.742188 2.691406 -6.96875 2.953125 -7.15625 C 3.222656 -7.34375 3.523438 -7.488281 3.859375 -7.59375 C 4.191406 -7.707031 4.515625 -7.765625 4.828125 -7.765625 C 5.191406 -7.765625 5.5625 -7.6875 5.9375 -7.53125 C 6.320312 -7.382812 6.671875 -7.148438 6.984375 -6.828125 C 7.304688 -6.515625 7.566406 -6.109375 7.765625 -5.609375 C 7.960938 -5.109375 8.0625 -4.507812 8.0625 -3.8125 C 8.0625 -3.113281 7.960938 -2.507812 7.765625 -2 C 7.578125 -1.5 7.320312 -1.09375 7 -0.78125 C 6.6875 -0.476562 6.335938 -0.25 5.953125 -0.09375 C 5.566406 0.0507812 5.175781 0.125 4.78125 0.125 C 4.476562 0.125 4.15625 0.0703125 3.8125 -0.03125 C 3.476562 -0.144531 3.175781 -0.300781 2.90625 -0.5 C 2.644531 -0.695312 2.472656 -0.921875 2.390625 -1.171875 Z M 4.640625 -0.90625 C 5.003906 -0.90625 5.359375 -1 5.703125 -1.1875 C 6.054688 -1.382812 6.34375 -1.695312 6.5625 -2.125 C 6.789062 -2.5625 6.90625 -3.125 6.90625 -3.8125 C 6.90625 -4.53125 6.789062 -5.097656 6.5625 -5.515625 C 6.34375 -5.929688 6.054688 -6.234375 5.703125 -6.421875 C 5.359375 -6.617188 5.003906 -6.71875 4.640625 -6.71875 C 4.398438 -6.71875 4.144531 -6.664062 3.875 -6.5625 C 3.601562 -6.46875 3.347656 -6.304688 3.109375 -6.078125 C 2.878906 -5.859375 2.6875 -5.5625 2.53125 -5.1875 C 2.382812 -4.820312 2.3125 -4.363281 2.3125 -3.8125 C 2.3125 -3.132812 2.429688 -2.578125 2.671875 -2.140625 C 2.910156 -1.710938 3.207031 -1.398438 3.5625 -1.203125 C 3.914062 -1.003906 4.273438 -0.90625 4.640625 -0.90625 Z M 4.640625 -0.90625 "/></g></g></g></svg>